<?xml version="1.0" encoding="UTF-8" standalone="no"?>
<!-- Created with Inkscape (http://www.inkscape.org/) -->

<svg
   xmlns:dc="http://purl.org/dc/elements/1.1/"
   xmlns:cc="http://creativecommons.org/ns#"
   xmlns:rdf="http://www.w3.org/1999/02/22-rdf-syntax-ns#"
   xmlns:svg="http://www.w3.org/2000/svg"
   xmlns="http://www.w3.org/2000/svg"
   xmlns:xlink="http://www.w3.org/1999/xlink"
   xmlns:sodipodi="http://sodipodi.sourceforge.net/DTD/sodipodi-0.dtd"
   xmlns:inkscape="http://www.inkscape.org/namespaces/inkscape"
   width="90.007828mm"
   height="66.572136mm"
   viewBox="0 0 90.007828 66.572134"
   version="1.1"
   id="svg4909"
   inkscape:version="0.92.3 (2405546, 2018-03-11)"
   sodipodi:docname="erum-data-idt.svg"
   inkscape:export-filename="/home/ritter/erum-data-idt.png"
   inkscape:export-xdpi="338.64001"
   inkscape:export-ydpi="338.64001">
  <sodipodi:namedview
     id="base"
     pagecolor="#ffffff"
     bordercolor="#666666"
     borderopacity="1.0"
     inkscape:pageopacity="0.0"
     inkscape:pageshadow="2"
     inkscape:zoom="0.81722735"
     inkscape:cx="-183.13086"
     inkscape:cy="-69.762191"
     inkscape:document-units="mm"
     inkscape:current-layer="layer1"
     showgrid="false"
     fit-margin-top="3"
     fit-margin-left="3"
     fit-margin-right="3"
     fit-margin-bottom="3"
     inkscape:window-width="1916"
     inkscape:window-height="1161"
     inkscape:window-x="0"
     inkscape:window-y="18"
     inkscape:window-maximized="0" />
  <defs
     id="defs4903">
    <linearGradient
       id="linearGradient4774"
       inkscape:collect="always">
      <stop
         id="stop4770"
         offset="0"
         style="stop-color:#00527f;stop-opacity:1" />
      <stop
         style="stop-color:#6794ad;stop-opacity:1;"
         offset="0.10331553"
         id="stop4788" />
      <stop
         id="stop4772"
         offset="1"
         style="stop-color:#e0e2e5;stop-opacity:1" />
    </linearGradient>
    <clipPath
       id="clipPath4832"
       clipPathUnits="userSpaceOnUse">
      <path
         inkscape:connector-curvature="0"
         id="path4834"
         d="m -207.01016,547.63012 c -0.058,0.002 -0.11613,0.009 -0.17309,0.0246 -1.09664,0.88527 -1.11475,2.64693 -0.83877,3.88405 0.31867,0.69674 1.187,0.49181 1.3931,1.29536 0.31507,0.23826 -0.67545,0.78749 -0.24046,1.3345 0.2384,0.45533 1.57858,0.718 0.57273,1.06734 -0.52313,0.43421 -0.17136,1.02548 0.29001,1.24052 -7.9e-4,0 -7.9e-4,0 -0.002,0 -1.22798,-0.12532 -1.04759,1.74426 -1.64391,2.05423 -1.0944,0.55725 -0.46349,-1.30188 -1.35187,-1.60497 -0.50645,0.39686 -1.40838,0.19822 -2.06206,0.42218 -0.89339,0.18193 -1.82564,0.22711 -2.69212,0.50582 -0.69233,0.0406 -1.05557,0.53693 -1.74418,0.70532 -0.70735,0.80393 0.85444,1.87965 1.33507,0.94715 0.4702,0.25828 -0.58119,1.8703 0.55764,2.06301 0.86916,-0.0259 -0.16761,0.97809 0.22696,1.46291 0.049,0.89693 -0.81114,1.87979 -0.8649,2.58191 -1.02536,-0.30561 -1.77524,0.48763 -1.57668,1.49301 -0.62358,1.31445 2.13454,0.70495 1.41651,1.77411 -0.005,0.0488 -0.005,0.0962 -0.003,0.1422 -0.25161,0.13966 -0.48328,0.33158 -0.67916,0.61781 -1.25746,0.30764 -0.32742,1.72329 -1.38721,1.75613 -1.02567,-0.0872 -3.23706,-0.29763 -2.96519,1.33119 0.0449,1.25016 1.70832,2.11704 0.55865,3.28926 -0.47497,0.69835 -0.26351,1.44599 -1.27071,1.61968 -0.6638,1.01048 1.14501,1.49612 0.31445,2.46445 0.59343,0.81094 0.86039,1.26264 0.95871,2.26654 0.41788,0.14629 0.55632,0.44037 0.62845,0.75025 -0.91515,0.75284 -1.66942,2.27671 -0.91446,3.53628 0.24596,0.92473 2.21125,1.23737 0.87568,2.12172 -0.12042,0.20686 -0.17131,0.39124 -0.1675,0.55348 -0.23303,0.63939 0.0772,1.45886 0.7892,1.40286 0.13157,0.83922 0.7913,1.25707 0.94795,2.01624 0.68152,0.74804 1.42791,-0.1864 1.84918,0.68979 0.608,0.0607 1.29725,0.14171 1.8341,-0.15692 0.21332,0.12352 0.42025,0.25739 0.57372,0.45026 0.82244,0.58285 1.84236,0.2151 2.66037,0.6872 -0.21085,0.42754 -0.37061,0.89244 -0.88229,1.01234 -0.24842,0.66956 -1.19248,1.10159 -0.96258,1.97752 -0.46733,1.04134 -0.62142,2.03965 -1.25046,2.99389 -0.16479,0.75699 0.21486,1.31902 -0.17209,2.01291 -0.31028,0.97812 -0.39947,2.05096 0.54729,2.80893 0.67369,0.7754 1.57524,-0.35679 2.34981,0.21548 0.72276,-0.0444 0.89606,-0.59885 1.51908,-0.11429 0.84823,0.15464 1.74758,-0.2371 2.13375,-0.80681 0.56391,0.4457 1.20836,0.0491 1.76658,0.10667 0.66963,0.28892 1.61077,-0.36064 2.00447,0.54023 0.1251,0.0696 0.24704,0.11162 0.3666,0.13344 0.0348,0.0268 0.0725,0.054 0.11332,0.0815 0.9591,0.40161 2.16134,0.0962 2.22182,1.55315 0.26346,0.45924 0.74334,1.08513 1.57481,0.59738 0.6623,-0.36476 1.30303,-1.14866 1.35087,-1.84148 0.82298,-0.28984 1.38373,0.4659 1.79215,0.96185 0.79209,0.0124 1.72529,0.31642 2.33185,-0.3341 0.2502,-0.79261 1.46955,-0.23292 1.57179,-1.13429 0.97762,0.11638 1.68293,-0.36893 2.68967,-0.21059 0.48938,-0.12225 0.45968,-1.09144 0.98974,-0.34114 0.8338,0.54846 1.37558,-0.89082 1.53489,0.46795 0.5837,0.68662 2.15956,1.3401 2.25799,-0.0496 -0.0548,-0.687 0.55501,-1.45506 -0.30525,-2.02718 0.0153,-0.48391 -0.20521,-1.47856 -0.84149,-1.89919 -0.46577,-0.45193 -0.3106,-0.78373 0.29219,-0.97867 0.6258,-0.77779 2.03275,-0.43625 2.40294,-1.63377 0.20514,-0.51302 -0.058,-1.44341 0.74165,-0.72966 1.1908,0.17574 1.31742,-1.49261 1.20421,-2.3447 -0.0321,-1.07763 -1.01523,-1.48888 -1.70267,-2.14089 -0.79458,0.2026 -0.86732,-1.09991 -1.70969,-1.06907 -0.2735,-0.35296 -0.85471,-1.08422 -1.42184,-1.53688 -0.92461,0.002 -1.21284,-0.69828 -1.54895,-1.41455 -0.56988,-0.6688 -0.83006,-1.50278 -0.34476,-2.40847 -0.0774,-0.77996 -0.82963,-0.99795 -1.34453,-1.39482 0.30587,-0.29537 0.34882,-1.01038 0.63462,-1.36718 0.45465,-0.30513 1.26553,-0.88943 1.80494,-0.42766 0.87697,0.2693 0.88799,-1.10625 1.7689,-0.85143 0.27575,-1.22442 1.47751,-0.47684 1.8822,-1.74086 0.54559,-0.0199 1.33238,0.14315 1.52784,-0.59304 0.75633,-0.35112 1.78465,-0.66507 2.25643,-1.26412 0.0662,0.15546 0.53172,1.08481 1.20695,0.88322 0.9116,0.0991 0.88338,-1.05367 1.29153,-1.64139 0.29266,-1.22754 0.68843,-2.5288 0.0363,-3.69172 -0.1824,-0.61859 -0.65713,-0.83733 -1.11989,-1.10852 0.0694,-0.46974 -0.0827,-0.97813 -0.53709,-1.21892 -0.25804,-0.84488 0.7867,-2.0888 0.0418,-2.95302 0.47039,-0.96704 -0.82184,-1.20007 -0.78618,-1.83081 0.84412,-0.96361 0.003,-2.05641 -0.88387,-2.50579 -0.35451,-0.61026 -1.87432,-1.00499 -0.80888,-1.63808 0.58357,-0.54508 0.6196,-1.34398 0.6816,-2.06013 0.20463,-0.0612 0.16617,-0.34804 0.0365,-0.71338 -0.0171,-0.0818 -0.044,-0.15026 -0.0793,-0.20742 -0.21638,-0.53321 -0.55122,-1.16258 -0.61281,-1.50856 0.12254,-0.81994 -0.39782,-1.66112 -0.65633,-2.21529 0.4847,-1.08 -0.93272,-1.75355 -1.74389,-2.24092 -0.3936,-0.70614 -0.87032,-0.61896 -0.48754,-1.49068 -0.43307,-0.5874 -0.58972,-0.73705 -0.29864,-1.39223 0.16628,-0.85646 -1.06992,-0.632 -1.11514,-0.98256 -0.0512,-0.23756 -0.33053,-0.7266 -0.64657,-0.54297 -0.83576,-0.29301 -1.1538,0.9803 -1.78567,0.61321 0.30722,1.36259 -1.01266,1.77131 -1.97748,1.10045 -0.86324,-0.4077 -0.75426,1.5709 -1.67049,1.84278 -0.55305,0.70731 -1.37184,0.78899 -2.24435,0.7655 -0.80418,0.26047 -1.16516,1.77454 -2.05561,1.06086 -0.18649,0 -0.37192,0.0237 -0.55261,0.0662 0.46436,-0.44038 1.0167,-0.87536 0.63507,-1.65362 -0.0403,-0.50496 1.3843,-0.0326 1.0186,-0.98803 -0.25663,-1.26615 -2.10232,-2.0321 -2.43497,-0.49734 -0.0198,0.53946 -0.64994,1.07772 -1.02996,0.50382 -0.75148,-0.71248 -2.57258,-0.32521 -2.17052,-1.78276 -0.0308,-0.98058 -0.84465,-1.68838 -1.53331,-1.65664 -0.2324,-1.18259 -1.5685,0.0328 -2.24766,-0.24428 -1.00978,-0.45305 -2.09831,-0.53212 -3.19833,-0.5588 0.49426,-0.53744 -0.062,-1.12536 -0.62286,-1.11052 z m 0.53897,1.26814 c 0.0287,7.9e-4 0.0279,0.0338 -0.0552,0.12911 -0.21371,0.0206 -0.008,-0.13131 0.0552,-0.12911 z m -2.58624,5.17709 c -0.16384,-0.002 -0.37144,0.0576 -0.56411,0.0671 -1.46653,0.65751 0.99186,2.19596 0.85457,0.48855 0.0585,-0.44739 -0.0798,-0.55279 -0.29046,-0.55562 z"
         style="fill:#eeeeec;stroke:#000000;stroke-width:0.49999997;stroke-miterlimit:4;stroke-dasharray:none" />
    </clipPath>
    <linearGradient
       gradientUnits="userSpaceOnUse"
       y2="562.78125"
       x2="-197.20201"
       y1="609.82269"
       x1="-187.15842"
       id="linearGradient4776"
       xlink:href="#linearGradient4774"
       inkscape:collect="always" />
  </defs>
  <metadata
     id="metadata4906">
    <rdf:RDF>
      <cc:Work
         rdf:about="">
        <dc:format>image/svg+xml</dc:format>
        <dc:type
           rdf:resource="http://purl.org/dc/dcmitype/StillImage" />
        <dc:title />
      </cc:Work>
    </rdf:RDF>
  </metadata>
  <g
     transform="translate(230.93866,-73.21393)"
     id="layer1"
     inkscape:groupmode="layer"
     inkscape:label="Layer 1">
    <g
       id="g9459">
      <path
         style="fill:#e0e2e5;fill-opacity:1;stroke:none;stroke-width:0.5;stroke-miterlimit:4;stroke-dasharray:none;stroke-opacity:1"
         d="m -194.88498,76.464313 c -0.058,0.002 -0.11613,0.009 -0.17309,0.0246 -1.09664,0.88526 -1.11475,2.64692 -0.83877,3.88404 0.31867,0.69675 1.187,0.49182 1.3931,1.29536 0.31508,0.23826 -0.67545,0.78749 -0.24046,1.33451 0.2384,0.45532 1.57858,0.71799 0.57273,1.06734 -0.52313,0.4342 -0.17136,1.02548 0.29001,1.24052 -7.9e-4,0 -7.9e-4,-1e-5 -0.002,0 -1.22798,-0.12533 -1.04759,1.74426 -1.64391,2.05422 -1.0944,0.55725 -0.46349,-1.30187 -1.35187,-1.60497 -0.50645,0.39686 -1.40838,0.19823 -2.06206,0.42218 -0.89339,0.18193 -1.82564,0.22711 -2.69212,0.50582 -0.69233,0.0406 -1.05557,0.53693 -1.74418,0.70533 -0.70735,0.80392 0.85444,1.87965 1.33507,0.94715 0.4702,0.25827 -0.58119,1.8703 0.55764,2.063 0.86916,-0.0259 -0.16761,0.9781 0.22696,1.46291 0.049,0.89693 -0.81114,1.8798 -0.8649,2.58192 -1.02536,-0.30561 -1.77524,0.48763 -1.57668,1.493 -0.62358,1.31445 2.13454,0.70496 1.41651,1.77411 -0.005,0.0488 -0.005,0.0962 -0.003,0.14221 -0.25161,0.13966 -0.48328,0.33157 -0.67916,0.61781 -1.25746,0.30763 -0.32742,1.723287 -1.38721,1.756117 -1.02567,-0.0872 -3.23706,-0.297627 -2.96519,1.33119 0.0449,1.25016 1.70831,2.11704 0.55865,3.28927 -0.47497,0.69834 -0.26351,1.44599 -1.27071,1.61967 -0.6638,1.01048 1.14501,1.49612 0.31445,2.46446 0.59343,0.81094 0.86039,1.26263 0.9587,2.26654 0.41789,0.14629 0.55633,0.44036 0.62846,0.75024 -0.91515,0.75284 -1.66942,2.27672 -0.91446,3.53628 0.24595,0.92473 2.21125,1.23737 0.87568,2.12173 -0.12042,0.20685 -0.17131,0.39124 -0.1675,0.55347 -0.23303,0.63939 0.0772,1.45886 0.7892,1.40287 0.13156,0.83921 0.7913,1.25707 0.94795,2.01623 0.68152,0.74804 1.42791,-0.18639 1.84918,0.68979 0.608,0.0607 1.29725,0.14171 1.8341,-0.15691 0.21332,0.12352 0.42025,0.25738 0.57372,0.45026 0.82244,0.58285 1.84236,0.2151 2.66037,0.68719 -0.21085,0.42754 -0.37061,0.89244 -0.88229,1.01235 -0.24842,0.66956 -1.19248,1.10159 -0.96258,1.97752 -0.46733,1.04133 -0.62142,2.03964 -1.25046,2.99389 -0.16479,0.75698 0.21486,1.31901 -0.17209,2.01291 -0.31028,0.97811 -0.39947,2.05095 0.54729,2.80893 0.67369,0.77539 1.57524,-0.35679 2.34981,0.21548 0.72276,-0.0444 0.89606,-0.59886 1.51908,-0.11429 0.84823,0.15463 1.74758,-0.23711 2.13375,-0.80681 0.5639,0.44569 1.20836,0.0491 1.76658,0.10666 0.66963,0.28892 1.61077,-0.36063 2.00447,0.54023 0.1251,0.0696 0.24703,0.11162 0.36659,0.13344 0.0348,0.0268 0.0725,0.054 0.11333,0.0815 0.9591,0.4016 2.16134,0.0962 2.22182,1.55315 0.26346,0.45924 0.74334,1.08512 1.57481,0.59737 0.6623,-0.36476 1.30303,-1.14866 1.35087,-1.84147 0.82298,-0.28985 1.38373,0.46589 1.79215,0.96184 0.79208,0.0124 1.72529,0.31643 2.33185,-0.3341 0.2502,-0.7926 1.46955,-0.23292 1.57179,-1.13428 0.97762,0.11637 1.68293,-0.36893 2.68967,-0.21059 0.48938,-0.12226 0.45968,-1.09144 0.98974,-0.34115 0.83379,0.54846 1.37558,-0.89082 1.53488,0.46796 0.5837,0.68662 2.15957,1.34009 2.258,-0.0496 -0.0548,-0.68699 0.555,-1.45506 -0.30525,-2.02717 0.0153,-0.48391 -0.20521,-1.47857 -0.84149,-1.89919 -0.46578,-0.45193 -0.3106,-0.78374 0.29218,-0.97868 0.62581,-0.77779 2.03276,-0.43624 2.40295,-1.63377 0.20514,-0.51301 -0.058,-1.44341 0.74165,-0.72965 1.1908,0.17573 1.31741,-1.49261 1.20421,-2.34471 -0.0321,-1.07763 -1.01524,-1.48887 -1.70267,-2.14088 -0.79458,0.20259 -0.86732,-1.09991 -1.7097,-1.06907 -0.2735,-0.35296 -0.8547,-1.08423 -1.42183,-1.53689 -0.92461,0.002 -1.21284,-0.69827 -1.54895,-1.41454 -0.56989,-0.6688 -0.83006,-1.50279 -0.34476,-2.40848 -0.0774,-0.77995 -0.82963,-0.99795 -1.34454,-1.39482 0.30588,-0.29537 0.34883,-1.01037 0.63463,-1.36718 0.45465,-0.30512 1.26553,-0.88943 1.80494,-0.42766 0.87697,0.26931 0.88799,-1.10624 1.76889,-0.85142 0.27576,-1.22442 1.47752,-0.47684 1.88221,-1.74087 0.54559,-0.0199 1.33238,0.14316 1.52784,-0.59304 0.75632,-0.35112 1.78465,-0.66506 2.25643,-1.26412 0.0662,0.15547 0.53171,1.08481 1.20694,0.88323 0.91161,0.0991 0.88339,-1.05368 1.29154,-1.64139 0.29265,-1.22754 0.68843,-2.5288 0.0363,-3.69173 -0.1824,-0.61859 -0.65714,-0.83732 -1.11989,-1.10851 0.0694,-0.46975 -0.0827,-0.97813 -0.53709,-1.21892 -0.25804,-0.84488 0.7867,-2.088799 0.0418,-2.953019 0.47039,-0.96705 -0.82184,-1.20007 -0.78618,-1.83082 0.84411,-0.96361 0.003,-2.05641 -0.88387,-2.50578 -0.35451,-0.61027 -1.87432,-1.00499 -0.80889,-1.63808 0.58358,-0.54509 0.61961,-1.34399 0.68161,-2.06014 0.20463,-0.0612 0.16617,-0.34804 0.0365,-0.71338 -0.0171,-0.0818 -0.044,-0.15026 -0.0793,-0.20742 -0.21637,-0.53321 -0.55121,-1.16258 -0.6128,-1.50855 0.12253,-0.819948 -0.39784,-1.661118 -0.65634,-2.215288 0.48469,-1.08 -0.93272,-1.75355 -1.74389,-2.24092 -0.39361,-0.70615 -0.87034,-0.61897 -0.48754,-1.49069 -0.43307,-0.58739 -0.58973,-0.73705 -0.29865,-1.39223 0.16628,-0.85645 -1.06991,-0.63199 -1.11513,-0.98256 -0.0512,-0.23756 -0.33053,-0.7266 -0.64657,-0.54296 -0.83578,-0.29301 -1.15381,0.98029 -1.78568,0.6132 0.30722,1.3626 -1.01266,1.77132 -1.97747,1.10045 -0.86324,-0.4077 -0.75427,1.5709 -1.6705,1.84278 -0.55304,0.70732 -1.37184,0.78899 -2.24435,0.7655 -0.80418,0.26047 -1.16516,1.77454 -2.0556,1.06086 -0.1865,0 -0.37193,0.0237 -0.55262,0.0662 0.46436,-0.44039 1.0167,-0.87536 0.63507,-1.65363 -0.0403,-0.50496 1.38431,-0.0326 1.0186,-0.98802 -0.25663,-1.26615 -2.10231,-2.0321 -2.43496,-0.49734 -0.0198,0.53945 -0.64995,1.07771 -1.02997,0.50381 -0.75147,-0.71248 -2.57258,-0.3252 -2.17052,-1.78275 -0.0308,-0.98058 -0.84464,-1.68839 -1.5333,-1.65665 -0.23241,-1.18259 -1.5685,0.0328 -2.24767,-0.24427 -1.00978,-0.45306 -2.09831,-0.53212 -3.19832,-0.5588 0.49425,-0.53744 -0.062,-1.12536 -0.62287,-1.11052 z m 0.53897,1.26814 c 0.0287,7.7e-4 0.0279,0.0338 -0.0552,0.12911 -0.21371,0.0206 -0.008,-0.13131 0.0552,-0.12911 z m -2.58624,5.17709 c -0.16384,-0.002 -0.37144,0.0576 -0.56411,0.0671 -1.46653,0.65751 0.99186,2.19596 0.85457,0.48855 0.0585,-0.44739 -0.0798,-0.55279 -0.29046,-0.55562 z"
         id="path4869"
         inkscape:connector-curvature="0" />
      <text
         transform="translate(12.125187,-471.16581)"
         xml:space="preserve"
         style="font-style:normal;font-variant:normal;font-weight:normal;font-stretch:normal;font-size:7.05555534px;line-height:1.10000002;font-family:Hack;-inkscape-font-specification:Hack;letter-spacing:0px;word-spacing:0px;fill:url(#linearGradient4776);fill-opacity:1;stroke:none;stroke-width:0.26458332"
         x="-222.36848"
         y="551.24414"
         id="text4808"
         clip-path="url(#clipPath4832)"><tspan
           sodipodi:role="line"
           id="tspan4806"
           x="-222.36848"
           y="551.24414"
           style="font-size:7.05555534px;line-height:1.10000002;fill:url(#linearGradient4776);fill-opacity:1;stroke-width:0.26458332">010101010101</tspan><tspan
           sodipodi:role="line"
           x="-222.36848"
           y="559.00525"
           style="font-size:7.05555534px;line-height:1.10000002;fill:url(#linearGradient4776);fill-opacity:1;stroke-width:0.26458332"
           id="tspan4810">101010101010</tspan><tspan
           sodipodi:role="line"
           x="-222.36848"
           y="566.76636"
           style="font-size:7.05555534px;line-height:1.10000002;fill:url(#linearGradient4776);fill-opacity:1;stroke-width:0.26458332"
           id="tspan4812">010101010101</tspan><tspan
           sodipodi:role="line"
           x="-222.36848"
           y="574.52747"
           style="font-size:7.05555534px;line-height:1.10000002;fill:url(#linearGradient4776);fill-opacity:1;stroke-width:0.26458332"
           id="tspan4814">101010101010</tspan><tspan
           sodipodi:role="line"
           x="-222.36848"
           y="582.28857"
           style="font-size:7.05555534px;line-height:1.10000002;fill:url(#linearGradient4776);fill-opacity:1;stroke-width:0.26458332"
           id="tspan4816">010101010101</tspan><tspan
           sodipodi:role="line"
           x="-222.36848"
           y="590.04968"
           style="font-size:7.05555534px;line-height:1.10000002;fill:url(#linearGradient4776);fill-opacity:1;stroke-width:0.26458332"
           id="tspan4818">101010101010</tspan><tspan
           sodipodi:role="line"
           x="-222.36848"
           y="597.81079"
           style="font-size:7.05555534px;line-height:1.10000002;fill:url(#linearGradient4776);fill-opacity:1;stroke-width:0.26458332"
           id="tspan4820">010101010101</tspan><tspan
           sodipodi:role="line"
           x="-222.36848"
           y="605.5719"
           style="font-size:7.05555534px;line-height:1.10000002;fill:url(#linearGradient4776);fill-opacity:1;stroke-width:0.26458332"
           id="tspan4822">101010101010</tspan><tspan
           sodipodi:role="line"
           x="-222.36848"
           y="613.33301"
           style="font-size:7.05555534px;line-height:1.10000002;fill:url(#linearGradient4776);fill-opacity:1;stroke-width:0.26458332"
           id="tspan4824">010101010101</tspan></text>
      <path
         inkscape:connector-curvature="0"
         id="path4796"
         d="m -194.88498,76.464313 c -0.058,0.002 -0.11613,0.009 -0.17309,0.0246 -1.09664,0.88526 -1.11475,2.64692 -0.83877,3.88404 0.31867,0.69675 1.187,0.49182 1.3931,1.29536 0.31508,0.23826 -0.67545,0.78749 -0.24046,1.33451 0.2384,0.45532 1.57858,0.71799 0.57273,1.06734 -0.52313,0.4342 -0.17136,1.02548 0.29001,1.24052 -7.9e-4,0 -7.9e-4,-1e-5 -0.002,0 -1.22798,-0.12533 -1.04759,1.74426 -1.64391,2.05422 -1.0944,0.55725 -0.46349,-1.30187 -1.35187,-1.60497 -0.50645,0.39686 -1.40838,0.19823 -2.06206,0.42218 -0.89339,0.18193 -1.82564,0.22711 -2.69212,0.50582 -0.69233,0.0406 -1.05557,0.53693 -1.74418,0.70533 -0.70735,0.80392 0.85444,1.87965 1.33507,0.94715 0.4702,0.25827 -0.58119,1.8703 0.55764,2.063 0.86916,-0.0259 -0.16761,0.9781 0.22696,1.46291 0.049,0.89693 -0.81114,1.8798 -0.8649,2.58192 -1.02536,-0.30561 -1.77524,0.48763 -1.57668,1.493 -0.62358,1.31445 2.13454,0.70496 1.41651,1.77411 -0.005,0.0488 -0.005,0.0962 -0.003,0.14221 -0.25161,0.13966 -0.48328,0.33157 -0.67916,0.61781 -1.25746,0.30763 -0.32742,1.723287 -1.38721,1.756117 -1.02567,-0.0872 -3.23706,-0.297627 -2.96519,1.33119 0.0449,1.25016 1.70831,2.11704 0.55865,3.28927 -0.47497,0.69834 -0.26351,1.44599 -1.27071,1.61967 -0.6638,1.01048 1.14501,1.49612 0.31445,2.46446 0.59343,0.81094 0.86039,1.26263 0.9587,2.26654 0.41789,0.14629 0.55633,0.44036 0.62846,0.75024 -0.91515,0.75284 -1.66942,2.27672 -0.91446,3.53628 0.24595,0.92473 2.21125,1.23737 0.87568,2.12173 -0.12042,0.20685 -0.17131,0.39124 -0.1675,0.55347 -0.23303,0.63939 0.0772,1.45886 0.7892,1.40287 0.13156,0.83921 0.7913,1.25707 0.94795,2.01623 0.68152,0.74804 1.42791,-0.18639 1.84918,0.68979 0.608,0.0607 1.29725,0.14171 1.8341,-0.15691 0.21332,0.12352 0.42025,0.25738 0.57372,0.45026 0.82244,0.58285 1.84236,0.2151 2.66037,0.68719 -0.21085,0.42754 -0.37061,0.89244 -0.88229,1.01235 -0.24842,0.66956 -1.19248,1.10159 -0.96258,1.97752 -0.46733,1.04133 -0.62142,2.03964 -1.25046,2.99389 -0.16479,0.75698 0.21486,1.31901 -0.17209,2.01291 -0.31028,0.97811 -0.39947,2.05095 0.54729,2.80893 0.67369,0.77539 1.57524,-0.35679 2.34981,0.21548 0.72276,-0.0444 0.89606,-0.59886 1.51908,-0.11429 0.84823,0.15463 1.74758,-0.23711 2.13375,-0.80681 0.5639,0.44569 1.20836,0.0491 1.76658,0.10666 0.66963,0.28892 1.61077,-0.36063 2.00447,0.54023 0.1251,0.0696 0.24703,0.11162 0.36659,0.13344 0.0348,0.0268 0.0725,0.054 0.11333,0.0815 0.9591,0.4016 2.16134,0.0962 2.22182,1.55315 0.26346,0.45924 0.74334,1.08512 1.57481,0.59737 0.6623,-0.36476 1.30303,-1.14866 1.35087,-1.84147 0.82298,-0.28985 1.38373,0.46589 1.79215,0.96184 0.79208,0.0124 1.72529,0.31643 2.33185,-0.3341 0.2502,-0.7926 1.46955,-0.23292 1.57179,-1.13428 0.97762,0.11637 1.68293,-0.36893 2.68967,-0.21059 0.48938,-0.12226 0.45968,-1.09144 0.98974,-0.34115 0.83379,0.54846 1.37558,-0.89082 1.53488,0.46796 0.5837,0.68662 2.15957,1.34009 2.258,-0.0496 -0.0548,-0.68699 0.555,-1.45506 -0.30525,-2.02717 0.0153,-0.48391 -0.20521,-1.47857 -0.84149,-1.89919 -0.46578,-0.45193 -0.3106,-0.78374 0.29218,-0.97868 0.62581,-0.77779 2.03276,-0.43624 2.40295,-1.63377 0.20514,-0.51301 -0.058,-1.44341 0.74165,-0.72965 1.1908,0.17573 1.31741,-1.49261 1.20421,-2.34471 -0.0321,-1.07763 -1.01524,-1.48887 -1.70267,-2.14088 -0.79458,0.20259 -0.86732,-1.09991 -1.7097,-1.06907 -0.2735,-0.35296 -0.8547,-1.08423 -1.42183,-1.53689 -0.92461,0.002 -1.21284,-0.69827 -1.54895,-1.41454 -0.56989,-0.6688 -0.83006,-1.50279 -0.34476,-2.40848 -0.0774,-0.77995 -0.82963,-0.99795 -1.34454,-1.39482 0.30588,-0.29537 0.34883,-1.01037 0.63463,-1.36718 0.45465,-0.30512 1.26553,-0.88943 1.80494,-0.42766 0.87697,0.26931 0.88799,-1.10624 1.76889,-0.85142 0.27576,-1.22442 1.47752,-0.47684 1.88221,-1.74087 0.54559,-0.0199 1.33238,0.14316 1.52784,-0.59304 0.75632,-0.35112 1.78465,-0.66506 2.25643,-1.26412 0.0662,0.15547 0.53171,1.08481 1.20694,0.88323 0.91161,0.0991 0.88339,-1.05368 1.29154,-1.64139 0.29265,-1.22754 0.68843,-2.5288 0.0363,-3.69173 -0.1824,-0.61859 -0.65714,-0.83732 -1.11989,-1.10851 0.0694,-0.46975 -0.0827,-0.97813 -0.53709,-1.21892 -0.25804,-0.84488 0.7867,-2.088799 0.0418,-2.953019 0.47039,-0.96705 -0.82184,-1.20007 -0.78618,-1.83082 0.84411,-0.96361 0.003,-2.05641 -0.88387,-2.50578 -0.35451,-0.61027 -1.87432,-1.00499 -0.80889,-1.63808 0.58358,-0.54509 0.61961,-1.34399 0.68161,-2.06014 0.20463,-0.0612 0.16617,-0.34804 0.0365,-0.71338 -0.0171,-0.0818 -0.044,-0.15026 -0.0793,-0.20742 -0.21637,-0.53321 -0.55121,-1.16258 -0.6128,-1.50855 0.12253,-0.819948 -0.39784,-1.661118 -0.65634,-2.215288 0.48469,-1.08 -0.93272,-1.75355 -1.74389,-2.24092 -0.39361,-0.70615 -0.87034,-0.61897 -0.48754,-1.49069 -0.43307,-0.58739 -0.58973,-0.73705 -0.29865,-1.39223 0.16628,-0.85645 -1.06991,-0.63199 -1.11513,-0.98256 -0.0512,-0.23756 -0.33053,-0.7266 -0.64657,-0.54296 -0.83578,-0.29301 -1.15381,0.98029 -1.78568,0.6132 0.30722,1.3626 -1.01266,1.77132 -1.97747,1.10045 -0.86324,-0.4077 -0.75427,1.5709 -1.6705,1.84278 -0.55304,0.70732 -1.37184,0.78899 -2.24435,0.7655 -0.80418,0.26047 -1.16516,1.77454 -2.0556,1.06086 -0.1865,0 -0.37193,0.0237 -0.55262,0.0662 0.46436,-0.44039 1.0167,-0.87536 0.63507,-1.65363 -0.0403,-0.50496 1.38431,-0.0326 1.0186,-0.98802 -0.25663,-1.26615 -2.10231,-2.0321 -2.43496,-0.49734 -0.0198,0.53945 -0.64995,1.07771 -1.02997,0.50381 -0.75147,-0.71248 -2.57258,-0.3252 -2.17052,-1.78275 -0.0308,-0.98058 -0.84464,-1.68839 -1.5333,-1.65665 -0.23241,-1.18259 -1.5685,0.0328 -2.24767,-0.24427 -1.00978,-0.45306 -2.09831,-0.53212 -3.19832,-0.5588 0.49425,-0.53744 -0.062,-1.12536 -0.62287,-1.11052 z m 0.53897,1.26814 c 0.0287,7.7e-4 0.0279,0.0338 -0.0552,0.12911 -0.21371,0.0206 -0.008,-0.13131 0.0552,-0.12911 z m -2.58624,5.17709 c -0.16384,-0.002 -0.37144,0.0576 -0.56411,0.0671 -1.46653,0.65751 0.99186,2.19596 0.85457,0.48855 0.0585,-0.44739 -0.0798,-0.55279 -0.29046,-0.55562 z"
         style="fill:none;fill-opacity:1;stroke:#6c7581;stroke-width:0.5;stroke-miterlimit:4;stroke-dasharray:none;stroke-opacity:1" />
      <path
         inkscape:connector-curvature="0"
         style="color:#000000;font-style:normal;font-variant:normal;font-weight:normal;font-stretch:normal;font-size:medium;line-height:normal;font-family:sans-serif;font-variant-ligatures:normal;font-variant-position:normal;font-variant-caps:normal;font-variant-numeric:normal;font-variant-alternates:normal;font-feature-settings:normal;text-indent:0;text-align:start;text-decoration:none;text-decoration-line:none;text-decoration-style:solid;text-decoration-color:#000000;letter-spacing:normal;word-spacing:normal;text-transform:none;writing-mode:lr-tb;direction:ltr;text-orientation:mixed;dominant-baseline:auto;baseline-shift:baseline;text-anchor:start;white-space:normal;shape-padding:0;clip-rule:nonzero;display:inline;overflow:visible;visibility:visible;opacity:1;isolation:auto;mix-blend-mode:normal;color-interpolation:sRGB;color-interpolation-filters:linearRGB;solid-color:#000000;solid-opacity:1;vector-effect:none;fill:#000000;fill-opacity:1;fill-rule:nonzero;stroke:none;stroke-width:3;stroke-linecap:butt;stroke-linejoin:miter;stroke-miterlimit:4;stroke-dasharray:none;stroke-dashoffset:0;stroke-opacity:1;color-rendering:auto;image-rendering:auto;shape-rendering:auto;text-rendering:auto;enable-background:accumulate"
         d="m -204.48992,121.68433 -8.06515,7.62745 h 51.10903 l -5.99033,4.26537 c 12.6635,-2.61171 19.44259,-4.45346 23.50554,-7.26519 h -61.07121 l 4.20233,-4.12223 c -0.0387,-0.0238 -0.0748,-0.0506 -0.11421,-0.0734 -0.53685,0.29862 -1.22599,0.2178 -1.83399,0.1571 -0.3994,-0.8307 -1.0905,-0.0366 -1.74201,-0.58911 z"
         id="path1347-6-1" />
      <text
         xml:space="preserve"
         style="font-style:normal;font-variant:normal;font-weight:normal;font-stretch:normal;font-size:4.23333311px;line-height:1.25;font-family:sans-serif;-inkscape-font-specification:sans-serif;letter-spacing:0px;word-spacing:0px;fill:#000000;fill-opacity:1;stroke:none;stroke-width:0.26458332"
         x="-229.39493"
         y="95.709007"
         id="text4800"><tspan
           sodipodi:role="line"
           x="-229.39493"
           y="95.709007"
           style="font-style:normal;font-variant:normal;font-weight:normal;font-stretch:normal;font-size:16.93333244px;line-height:1;font-family:Ubuntu;-inkscape-font-specification:Ubuntu;stroke-width:0.26458332"
           id="tspan4802">ErUM-Data</tspan><tspan
           sodipodi:role="line"
           x="-229.39493"
           y="102.71432"
           style="font-style:normal;font-variant:normal;font-weight:normal;font-stretch:normal;font-size:16.93333244px;line-height:1;font-family:sans-serif;-inkscape-font-specification:sans-serif;stroke-width:0.26458332"
           id="tspan4804" /></text>
      <text
         xml:space="preserve"
         style="font-style:normal;font-variant:normal;font-weight:normal;font-stretch:normal;font-size:6.13867188px;line-height:1.25;font-family:Ubuntu;-inkscape-font-specification:Ubuntu;letter-spacing:0px;word-spacing:0px;fill:#00527f;fill-opacity:1;stroke:none;stroke-width:0.26458332;"
         x="-201.54048"
         y="123.9711"
         id="text4851"><tspan
           sodipodi:role="line"
           id="tspan4849"
           x="-201.54048"
           y="123.9711"
           style="font-size:36.83202744px;fill:#00527f;fill-opacity:1;stroke-width:0.26458332;"
           dx="0 -1.0835871 -4.6052446">IDT</tspan></text>
    </g>
  </g>
</svg>
